<?xml version="1.0" encoding="UTF-8"?>
<svg width="18px" height="18px" viewBox="0 0 18 18" version="1.1" xmlns="http://www.w3.org/2000/svg" xmlns:xlink="http://www.w3.org/1999/xlink">
    <title>Actions / Controls / dashboard / 24</title>
    <defs>
        <polygon id="path-1" points="0.106038311 0.023041244 13.1548369 0.023041244 13.1548369 11.7635652 0.106038311 11.7635652"></polygon>
        <polygon id="path-3" points="0 0.0360578846 18.0107111 0.0360578846 18.0107111 15.7127219 0 15.7127219"></polygon>
    </defs>
    <g id="Symbols" stroke="none" stroke-width="1" fill="none" fill-rule="evenodd">
        <g id="Left-Nav-w/-Tool" transform="translate(-15.000000, -465.000000)">
            <g id="WOC-Simplified-Logo" transform="translate(14.000000, 464.000000)">
                <g id="Symbol" transform="translate(1.000000, 1.672318)">
                    <g id="Fill-1-Clipped" transform="translate(3.580215, 4.858864)">
                        <mask id="mask-2" fill="white">
                            <use xlink:href="#path-1"></use>
                        </mask>
                        <g id="path-1"></g>
                        <path d="M9.24498588,5.32687477 L9.22861918,5.25961786 C8.93478578,4.05666546 7.86634719,3.21633773 6.63040565,3.21633773 C6.37953484,3.21633773 6.12687392,3.25316281 5.87932759,3.32553431 L5.81283787,3.34496976 L5.00345344,1.94587269 L4.60425942,1.2454291 L9.31326571,1.2454291 L10.8811444,3.96178974 L11.6636772,5.32687477 L9.24498588,5.32687477 Z M4.60144639,10.5360883 L5.77498988,8.5007358 L5.80951339,8.44063933 L5.87625883,8.46007478 C6.12431662,8.53321347 6.37774473,8.57029427 6.63014992,8.57029427 C7.86609146,8.57029427 8.93478578,7.72996655 9.22861918,6.52701415 L9.24473015,6.45975724 L10.8670792,6.45975724 L11.6664902,6.46487183 L9.3390944,10.4972174 L9.3140329,10.5412029 L6.16446618,10.5412029 L4.60144639,10.5360883 Z M6.63142857,7.33972306 C5.83534209,7.33972306 5.18757881,6.69195979 5.18757881,5.8958733 C5.18757881,5.09978681 5.83534209,4.45227927 6.63142857,4.45227927 C7.42751506,4.45227927 8.07502261,5.09978681 8.07502261,5.8958733 C8.07502261,6.69195979 7.42751506,7.33946733 6.63142857,7.33972306 L6.63142857,7.33972306 Z M3.61867724,9.9724601 L1.28897987,5.93704578 L1.2634069,5.89306027 L3.61893297,1.81187034 L4.79810251,3.85310463 L4.83288175,3.91320111 L4.78301446,3.96102256 C4.24777224,4.47273764 3.95342738,5.1591161 3.95368311,5.893316 C3.95342738,6.6282831 4.24853943,7.31517301 4.78480457,7.82739956 L4.83518331,7.87522101 L4.02017283,9.28684883 L3.61867724,9.9724601 Z M10.488855,0.839586106 C10.200392,0.33605437 9.65824504,0.023041244 9.073647,0.023041244 L4.18409555,0.023041244 C4.03142494,0.023041244 3.88054443,0.045289726 3.73580143,0.0887637712 C3.48083894,0.159856622 3.24454472,0.295393351 3.052236,0.480285908 C2.94099359,0.589226751 2.84535069,0.711209808 2.76837606,0.842654862 L0.324111794,5.07446957 C0.03334715,5.58004715 0.03334715,6.20658486 0.324111794,6.70960514 L2.76914325,10.9503704 C2.85430123,11.090766 2.94943267,11.2112147 3.05198027,11.3086477 C3.2460791,11.492773 3.47956029,11.628054 3.72710662,11.7001698 C3.87312827,11.7421095 4.0268218,11.7635908 4.18409555,11.7635908 L9.07876159,11.7635908 C9.65926796,11.7635908 10.2006477,11.4505776 10.4916681,10.9470459 L12.9361881,6.71216243 C13.2277199,6.20786351 13.2277199,5.5813258 12.9361881,5.07702687 L10.488855,0.839586106 Z" id="Fill-1" fill="#000000" fill-rule="nonzero" mask="url(#mask-2)"></path>
                    </g>
                    <g id="Fill-4-Clipped">
                        <mask id="mask-4" fill="white">
                            <use xlink:href="#path-3"></use>
                        </mask>
                        <g id="path-3"></g>
                        <path d="M12.923734,1.32716031 C12.2064123,1.32716031 11.5105718,1.4744606 10.8553924,1.76471379 L10.7963188,1.79079822 L10.753612,1.74272104 C9.79002255,0.658171472 8.39527288,0.0359811657 6.92764026,0.0359811657 C6.04051401,0.0359811657 5.1684758,0.269206632 4.40614563,0.709573138 C2.32655189,1.91022398 1.36782133,4.43939049 2.12657128,6.72356798 L2.14677393,6.78468737 L2.0948608,6.82253536 C0.782967555,7.77896436 -7.67189034e-05,9.31641118 -7.67189034e-05,10.93518 C-7.67189034e-05,13.0393238 1.26450654,14.8979671 3.22160576,15.670015 C3.29321007,15.698401 3.3683946,15.7127219 3.44485777,15.7127219 C3.69649578,15.7127219 3.9189806,15.5613299 4.01129901,15.3270815 C4.13430499,15.0148356 3.98061145,14.66065 3.66836551,14.5373883 C2.17899587,13.9502329 1.21668509,12.5360478 1.21668509,10.93518 C1.21668509,9.53685016 1.97517931,8.24260226 3.19628853,7.556991 C3.20063593,7.5544337 3.20447188,7.55162067 3.20805209,7.54880765 L3.20140312,7.54036857 L3.21188804,7.54573889 C3.21955993,7.53985711 3.22595317,7.53525397 3.23234641,7.53090657 L3.23669382,7.52809354 C3.25357197,7.51684144 3.26610273,7.50891382 3.27761056,7.49945182 C3.29576737,7.48487523 3.31187834,7.46901999 3.32926796,7.45163037 C3.34384455,7.43679805 3.35356228,7.42733605 3.36225709,7.41710686 C3.37708941,7.39920579 3.38962016,7.38079325 3.40394103,7.35931196 C3.41442594,7.34371245 3.4218421,7.33246034 3.42849107,7.32069677 C3.43923172,7.30177278 3.44741507,7.28259305 3.4571328,7.25957738 C3.46352604,7.24397787 3.46991928,7.22888982 3.47477815,7.21329031 C3.48219431,7.19155329 3.48705317,7.16904907 3.49088912,7.14986935 C3.49523652,7.12838806 3.49856101,7.11406719 3.50035111,7.09923487 C3.50290841,7.07749785 3.50341987,7.05601656 3.5036756,7.03479099 L3.50393133,7.02251597 C3.50393133,7.00819511 3.50393133,6.99489716 3.50316414,6.98159922 C3.50137403,6.96037366 3.49779382,6.93940382 3.49395787,6.91843399 C3.49063339,6.89899853 3.4873089,6.88160892 3.48219431,6.86396357 C3.47682398,6.84350519 3.46889636,6.82355828 3.46071301,6.80361137 C3.45789999,6.79568374 3.45508696,6.7875004 3.4520182,6.77778267 C2.59711389,4.9659379 3.28323662,2.76359391 5.01452654,1.7639466 C5.59631156,1.42817353 6.26146445,1.25069714 6.93761372,1.25069714 C8.21754075,1.25069714 9.41077543,1.87033015 10.1309102,2.90961556 L10.1370477,2.91677599 C10.1459983,2.92649372 10.1506014,2.93186404 10.1549488,2.93749009 C10.1687582,2.95487971 10.1823119,2.97175787 10.1971442,2.98684592 C10.2101864,3.00039959 10.2242515,3.01241889 10.2385724,3.02418245 C10.2544276,3.0374804 10.2705386,3.0512898 10.2884397,3.06356482 C10.3019934,3.07277109 10.3160585,3.08069871 10.3303794,3.08862633 L10.3349825,3.09118363 C10.3518606,3.1003899 10.3712961,3.11113054 10.3920102,3.12008108 C10.4058196,3.12596287 10.4198847,3.130566 10.4342056,3.13542486 L10.4405988,3.1374707 C10.4636145,3.14514259 10.4833057,3.15102437 10.5040198,3.15537178 C10.5180849,3.15844053 10.5329173,3.16048637 10.5485168,3.16253221 C10.5725554,3.16560097 10.5960825,3.16815826 10.6206325,3.16866972 C10.6367435,3.16866972 10.6490185,3.16790253 10.6607821,3.16713534 C10.6907025,3.16534524 10.7139739,3.16355513 10.7372453,3.15920772 C10.7500318,3.15690616 10.7633297,3.15358167 10.7761162,3.15000146 C10.8080824,3.14156238 10.8295637,3.13568059 10.8513007,3.12698578 C10.8630643,3.12238265 10.8745721,3.11650087 10.8863357,3.11087481 L10.8817325,3.10166855 L10.8853128,3.10013417 L10.8896602,3.10908471 C10.9055154,3.10141282 10.913443,3.0978326 10.9206035,3.09476384 L10.9149774,3.08197736 L10.9246951,3.09297374 C10.9313441,3.09016071 10.9359472,3.0883706 10.9410618,3.08555758 C11.5387021,2.73060478 12.2232904,2.54315493 12.9204095,2.54315493 C13.5996276,2.54315493 14.2688721,2.72190997 14.8557717,3.0607518 C16.2423381,3.86118569 16.9857442,5.40144554 16.7497057,6.98492371 C16.7259229,7.14577767 16.7660724,7.30637591 16.862994,7.43679805 C16.9596598,7.56747591 17.1010783,7.6526339 17.262188,7.67667249 C17.2926198,7.68101989 17.3233074,7.68357719 17.3527163,7.68357719 C17.6516643,7.68357719 17.9099513,7.46032518 17.9539368,7.16444594 C18.2638812,5.08331782 17.2867381,3.05870596 15.4641526,2.00637833 C14.6944063,1.56217588 13.8159749,1.32716031 12.923734,1.32716031 Z" id="Fill-4" fill="#000000" fill-rule="nonzero" mask="url(#mask-4)"></path>
                    </g>
                </g>
                <rect id="Rectangle" x="0" y="0" width="20" height="20"></rect>
            </g>
        </g>
    </g>
</svg>